<?xml version="1.0" encoding="utf-8"?>
<!-- Generator: Adobe Illustrator 24.1.2, SVG Export Plug-In . SVG Version: 6.00 Build 0)  -->
<svg version="1.1" id="passward_icon" xmlns="http://www.w3.org/2000/svg" xmlns:xlink="http://www.w3.org/1999/xlink" x="0px"
	 y="0px" viewBox="0 0 29.6 29.6" style="enable-background:new 0 0 29.6 29.6;" xml:space="preserve">
<style type="text/css">
	.st0{fill:url(#Ellipse_2_1_);}
	.st1{fill:#353B4B;}
</style>
<g id="Group_1195" transform="translate(0 0)">
	
		<linearGradient id="Ellipse_2_1_" gradientUnits="userSpaceOnUse" x1="-370.6413" y1="402.9994" x2="-370.3993" y2="401.9994" gradientTransform="matrix(29.6 0 0 -29.6 10982.4004 11929.6006)">
		<stop  offset="0" style="stop-color:#F0D67E"/>
		<stop  offset="0.464" style="stop-color:#F0D67E"/>
		<stop  offset="1" style="stop-color:#8F6314"/>
	</linearGradient>
	<circle id="Ellipse_2" class="st0" cx="14.8" cy="14.8" r="14.8"/>
</g>
<path id="lock-alt-light" class="st1" d="M14.5,20.3c-0.4,0-0.7-0.3-0.7-0.7v-2.1c0-0.4,0.3-0.7,0.7-0.7c0.4,0,0.7,0.3,0.7,0.7v2.1
	C15.1,20,14.8,20.3,14.5,20.3z M21.9,15.4v6.4c0,0.9-0.7,1.6-1.6,1.6H8.6c-0.9,0-1.6-0.7-1.6-1.6v-6.4c0-0.9,0.7-1.6,1.6-1.6
	c0,0,0,0,0,0h0.5v-2.1c0-2.9,2.3-5.3,5.3-5.4s5.3,2.3,5.4,5.3c0,0,0,0.1,0,0.1v2.1h0.5C21.2,13.8,21.9,14.5,21.9,15.4z M10.2,13.8
	h8.5v-2.1c0-2.3-1.9-4.2-4.2-4.2s-4.2,1.9-4.2,4.2V13.8z M20.8,21.7v-6.4c0-0.3-0.2-0.5-0.5-0.5H8.6c-0.3,0-0.5,0.2-0.5,0.5v6.4
	c0,0.3,0.2,0.5,0.5,0.5h11.7C20.6,22.3,20.8,22,20.8,21.7C20.8,21.7,20.8,21.7,20.8,21.7z"/>
</svg>
