<?xml version="1.0" encoding="utf-8"?>
<!-- Generator: Adobe Illustrator 24.1.2, SVG Export Plug-In . SVG Version: 6.00 Build 0)  -->
<svg version="1.1" id="user_icon" xmlns="http://www.w3.org/2000/svg" xmlns:xlink="http://www.w3.org/1999/xlink" x="0px" y="0px"
	 viewBox="0 0 29.6 29.6" style="enable-background:new 0 0 29.6 29.6;" xml:space="preserve">
<style type="text/css">
	.st0{fill:url(#Ellipse_2_1_);}
	.st1{fill:#353B4B;}
</style>
<linearGradient id="Ellipse_2_1_" gradientUnits="userSpaceOnUse" x1="-370.6736" y1="403.062" x2="-370.3996" y2="402.062" gradientTransform="matrix(29.6 0 0 -29.6 10982.4004 11929.6006)">
	<stop  offset="0" style="stop-color:#F0D67E"/>
	<stop  offset="0.464" style="stop-color:#F0D67E"/>
	<stop  offset="1" style="stop-color:#8F6314"/>
</linearGradient>
<circle id="Ellipse_2" class="st0" cx="14.8" cy="14.8" r="14.8"/>
<path id="user-regular" class="st1" d="M17.2,16.2c-0.9,0-1.3,0.5-2.7,0.5s-1.8-0.5-2.7-0.5c-2.2,0-4,1.8-4,4V21
	c0,0.8,0.6,1.4,1.4,1.4h10.6c0.8,0,1.4-0.6,1.4-1.4v-0.8C21.2,18,19.4,16.2,17.2,16.2z M19.8,21H9.2v-0.8c0-1.4,1.2-2.6,2.6-2.6
	c0.9,0.3,1.8,0.4,2.7,0.5c0.9-0.1,1.8-0.2,2.7-0.5c1.4,0,2.6,1.2,2.6,2.6v0L19.8,21z M14.5,15.7c2.4,0,4.3-1.9,4.3-4.3
	C18.8,9,16.9,7,14.5,7c-2.4,0-4.3,1.9-4.3,4.3C10.2,13.8,12.1,15.7,14.5,15.7L14.5,15.7z M14.5,8.5c1.6,0,2.9,1.3,2.9,2.9
	s-1.3,2.9-2.9,2.9c-1.6,0-2.9-1.3-2.9-2.9C11.6,9.8,12.9,8.5,14.5,8.5z"/>
</svg>
